<!DOCTYPE svg PUBLIC "-//W3C//DTD SVG 1.1//EN" "http://www.w3.org/Graphics/SVG/1.1/DTD/svg11.dtd">
<!-- Uploaded to: SVG Repo, www.svgrepo.com, Transformed by: SVG Repo Mixer Tools -->
<svg width="64px" height="64px" viewBox="-1.6 -1.6 19.20 19.20" fill="none" xmlns="http://www.w3.org/2000/svg" stroke="#38aecc" stroke-width="0.576">
<g id="SVGRepo_bgCarrier" stroke-width="0">
<path transform="translate(-1.6, -1.6), scale(0.6)" d="M16,31.59490221385893C19.439552963556608,30.769493519477756,20.264437903446016,26.33906009687726,22.180726788700902,23.365903355277574C23.379326505718023,21.506254292680772,24.126339958015777,19.612898574112513,25.025637245119803,17.591463364401843C26.377252417007394,14.553310644925594,29.44574094232658,11.898877193275043,28.72650036877449,8.65235158624618C27.94846954670009,5.140457124497859,24.932047439150338,1.8217560432566768,21.391413139485127,1.187214140313662C17.942844334152113,0.569171940255654,15.477161810828287,4.333507449132975,12.25098227193919,5.6996584470178515C9.309805569813891,6.945122761117313,5.355344492364878,6.186025222869359,3.480367415877616,8.771786757401724C1.5631586711673826,11.415789549707053,2.5713846698310436,15.051493158803543,3.1374684048846113,18.268011360433928C3.703771845749085,21.48577794228798,4.433577553866441,24.72942598295142,6.702530810051014,27.080292309155674C9.169472094922657,29.63629436848414,12.545754311479493,32.4238368033369,16,31.59490221385893" fill="#7eec86" strokewidth="0"/>
</g>
<g id="SVGRepo_tracerCarrier" stroke-linecap="round" stroke-linejoin="round" stroke="#CCCCCC" stroke-width="0.032"/>
<g id="SVGRepo_iconCarrier"> <path fill-rule="evenodd" clip-rule="evenodd" d="M11 3C13.7614 3 16 5.23858 16 8C16 10.7614 13.7614 13 11 13H5C2.23858 13 0 10.7614 0 8C0 5.23858 2.23858 3 5 3H11ZM11 5C12.6569 5 14 6.34315 14 8C14 9.65685 12.6569 11 11 11C9.34315 11 8 9.65685 8 8C8 6.34315 9.34315 5 11 5Z" fill="#000000"/> </g>
</svg>